# AST/ASF file generated using VICON BodyLanguage
# -----------------------------------------------
:version 1.10
:name VICON
:units
  mass 1.0
  length 0.45
  angle deg
:documentation
   .ast/.asf automatically generated from VICON data using
   VICON BodyBuilder and BodyLanguage model FoxedUp or BRILLIANT.MOD
:root
   order TX TY TZ RX RY RZ
   axis XYZ
   position 0 0 0  
   orientation 0 0 0 
:bonedata
  begin
     id 1 
     name lhipjoint
     direction 0.650112 -0.723553 0.232005 
     length 2.45805 
     axis 0 0 0  XYZ
  end
  begin
     id 2 
     name lfemur
     direction 0.34202 -0.939693 0  
     length 7.00073  
     axis 0 0 20  XYZ
    dof rx ry rz
    limits (-160.0 20.0)
           (-70.0 70.0)
           (-60.0 70.0)
  end
  begin
     id 3 
     name ltibia
     direction 0.34202 -0.939693 0   
     length 7.8748   
     axis 0 0 20   XYZ
    dof rx
    limits (-10.0 170.0)
  end
  begin
     id 4 
     name lfoot
     direction 0.0542825 -0.14914 0.987325   
     length 1.75978   
     axis -90 7.62852e-016 20   XYZ
    dof rx rz
    limits (-45.0 90.0)
           (-70.0 20.0)
  end
  begin
     id 5 
     name ltoes
     direction 1.53509e-011 -4.21906e-011 1   
     length 0.893912   
     axis -90 7.62852e-016 20   XYZ
    dof rx
    limits (-90.0 20.0)
  end
  begin
     id 6 
     name rhipjoint
     direction -0.637897 -0.733345 0.235145   
     length 2.42522  
     axis 0 0 0  XYZ 
  end
  begin
     id 7 
     name rfemur
     direction -0.34202 -0.939693 0   
     length 7.02549   
     axis 0 0 -20   XYZ
    dof rx ry rz
    limits (-160.0 20.0)
           (-70.0 70.0)
           (-70.0 60.0)
  end
  begin
     id 8 
     name rtibia
     direction -0.34202 -0.939693 0   
     length 7.71512   
     axis 0 0 -20   XYZ
    dof rx
    limits (-10.0 170.0)
 end
 begin
     id 9 
     name rfoot
     direction -0.0822618 -0.226012 0.970645   
     length 1.90014  
     axis -90 -7.62852e-016 -20   XYZ
    dof rx rz
    limits (-45.0 90.0)
           (-20.0 70.0)
  end
  begin
     id 10 
     name rtoes
     direction -1.53542e-011 -4.21872e-011 1   
     length 0.957341   
     axis -90 -7.62852e-016 -20   XYZ
    dof rx
    limits (-90.0 20.0)
  end
  begin
     id 11 
     name lowerback
     direction -0.0022947 0.999774 -0.0211557   
     length 1.89909   
     axis 0 0 0   XYZ
    dof rx ry rz
    limits (-20.0 45.0)
           (-30.0 30.0)
           (-30.0 30.0)
  end
  begin
     id 12 
     name upperback
     direction 0.0107737 0.998635 0.0511027   
     length 1.8853   
     axis 0 0 0   XYZ
    dof rx ry rz
    limits (-20.0 45.0)
           (-30.0 30.0)
           (-30.0 30.0)
  end
  begin
     id 13 
     name thorax
     direction 0.011824 0.998136 0.0598754   
     length 1.88911   
     axis 0 0 0   XYZ
    dof rx ry rz
    limits (-20.0 45.0)
           (-30.0 30.0)
           (-30.0 30.0)
  end
  begin
     id 14 
     name lowerneck
     direction -0.0685355 0.990319 0.120714   
     length 1.91222   
     axis 0 0 0   XYZ
    dof rx ry rz
    limits (-20.0 45.0)
           (-30.0 30.0)
           (-30.0 30.0)
  end
  begin
     id 15 
     name upperneck
     direction 0.0886204 0.955665 -0.280805   
     length 1.92526   
     axis 0 0 0   XYZ
    dof rx ry rz
    limits (-20.0 45.0)
           (-30.0 30.0)
           (-30.0 30.0)
  end
  begin
     id 16
     name head
     direction 0.0233423 0.993502 -0.111393  
     length 1.96056  
     axis 0 0 0   XYZ
    dof rx ry rz
    limits (-20.0 45.0)
           (-30.0 30.0)
           (-30.0 30.0)
  end
  begin
     id 17 
     name lclavicle
     direction 0.941873 0.32922 0.0670041  
     length 3.31705  
     axis 0 0 0   XYZ
    dof ry rz
    limits (-20.0 10.0)
           (0.0 20.0)
  end
  begin
     id 18 
     name lhumerus
     direction 1 -4.4898e-011 3.38707e-028   
     length 5.29277   
     axis 180 -30 -90   XYZ
    dof rx ry rz
    limits (-60.0 90.0)
           (-90.0 90.0)
           (-90.0 90.0)
  end
  begin
     id 19
     name lradius
     direction 1 -4.48952e-011 1.63213e-028   
     length 2.85226   
     axis 180 -30 -90   XYZ
    dof rx
    limits (-10.0 170.0)
  end
  begin
     id 20
     name lwrist
     direction 1 -4.49001e-011 1.27856e-027   
     length 1.42613   
     axis -1.61767e-015 90 90   XYZ
    dof ry
    limits (-180.0 0.0)
 end
  begin
     id 21 
     name lhand
     direction 1 -4.48976e-011 2.55931e-027   
     length 0.602097   
     axis -1.63363e-015 90 90   XYZ
    dof rx rz
    limits (-90.0 90.0)
           (-45.0 45.0)
  end
  begin
     id 22 
     name lfingers
     direction 1 -4.48986e-011 5.11684e-027   
     length 0.485426   
     axis -3.26723e-015 90 90   XYZ
    dof rx
    limits (0.0 90.0)
  end
  begin
     id 23
     name lthumb
     direction 0.707107 -6.34915e-011 0.707107   
     length 0.696978   
     axis -90 45 -2.25915e-014   XYZ
    dof rx rz
    limits (-45.0 45.0)
           (-45.0 45.0)
  end
  begin
     id 24 
     name rclavicle
     direction -0.939974 0.327078 0.0973096   
     length 3.10337  
     axis 0 0 0   XYZ 
    dof ry rz
    limits (-10.0 20.0)
           (-20.0 0.0)
  end
  begin
     id 25 
     name rhumerus
     direction -1 -4.48975e-011 1.83745e-027  
     length 5.13304   
     axis 180 30 90   XYZ
    dof rx ry rz
    limits (-90.0 60.0)
           (-90.0 90.0)
           (-90.0 90.0)
  end
  begin
     id 26 
     name rradius
     direction -1 -4.48977e-011 7.1775e-029   
     length 2.74305   
     axis 180 30 90   XYZ
    dof rx
    limits (-10.0 170.0)
  end
  begin
     id 27 
     name rwrist
     direction -1 -4.48977e-011 1.27963e-027   
     length 1.37152   
     axis -1.61767e-015 -90 -90   XYZ
    dof ry
    limits (-180.0 0.0)
  end
  begin
     id 28
     name rhand
     direction -1 -4.4888e-011 2.56782e-027   
     length 0.767976   
     axis -1.63363e-015 -90 -90   XYZ
    dof rx rz
    limits (-90.0 90.0)
           (-45.0 45.0)
  end
  begin
     id 29
     name rfingers
     direction -1 -4.48947e-011 5.12384e-027   
     length 0.619162   
     axis -3.26723e-015 -90 -90   XYZ
    dof rx
    limits (0.0 90.0)
  end
  begin
     id 30
     name rthumb
     direction -0.707107 -6.34857e-011 0.707107   
     length 0.888997   
     axis -90 -45 2.25915e-014   XYZ
    dof rx rz
    limits (-45.0 45.0)
           (-45.0 45.0)
  end
:hierarchy
  begin
    root lhipjoint rhipjoint lowerback
    lhipjoint lfemur
    lfemur ltibia
    ltibia lfoot
    lfoot ltoes
    rhipjoint rfemur
    rfemur rtibia
    rtibia rfoot
    rfoot rtoes
    lowerback upperback
    upperback thorax
    thorax lowerneck lclavicle rclavicle
    lowerneck upperneck
    upperneck head
    lclavicle lhumerus
    lhumerus lradius
    lradius lwrist
    lwrist lhand lthumb
    lhand lfingers
    rclavicle rhumerus
    rhumerus rradius
    rradius rwrist
    rwrist rhand rthumb
    rhand rfingers
  end

#!OML:ASF F:\VICON\USERDATA\INSTALL\rory3\rory3.ASF
:FULLY-SPECIFIED
:DEGREES
1019
root -0.782402 17.281 -1.49044 28.5086 20.0348 -3.5881
lowerback 10.7213 0.943671 -4.35346
upperback -5.11059 0.565069 -0.314317
thorax -11.6498 0.592143 1.99406
lowerneck -13.968 -5.37924 -13.9859
upperneck 0.83027 -6.29777 24.5816
head 4.02081 -2.19957 9.77376
rclavicle 3.18055e-014 2.06736e-014
rhumerus -8.53832 -11.0392 -79.1583
rradius 101.98
rwrist 27.4282
rhand 12.2321 0.486165
rfingers 7.12502
rthumb 37.2402 -25.5158
lclavicle 3.18055e-014 2.06736e-014
lhumerus 41.2661 -49.2652 74.0405
lradius 80.2795
lwrist -14.732
lhand 18.0146 34.1969
lfingers 7.12502
lthumb 42.6813 58.5545
rfemur -40.0826 0.156531 25.9166
rtibia 21.4235
rfoot -9.77499 -14.1217
rtoes -16.9186
lfemur -50.4115 -21.8154 7.23439
ltibia 23.462
lfoot -7.92154 8.663
ltoes -29.0194
1020
root -0.802072 17.267 -1.48999 28.6413 21.3251 -3.62017
lowerback 10.7992 0.9201 -4.11802
upperback -5.17629 0.589267 -0.0917423
thorax -11.7711 0.599764 2.098
lowerneck -14.1633 -5.01906 -13.8689
upperneck 1.01322 -5.80713 24.4556
head 3.99616 -1.9401 9.76123
rclavicle 4.39314e-014 8.74653e-015
rhumerus -9.27384 -12.2138 -77.919
rradius 102.405
rwrist 27.2733
rhand 12.128 0.443683
rfingers 7.12502
rthumb 37.1418 -25.584
lclavicle 4.39314e-014 8.74653e-015
lhumerus 43.0127 -50.5375 73.0122
lradius 80.3106
lwrist -14.2458
lhand 18.3045 34.0207
lfingers 7.12502
lthumb 42.9524 58.2834
rfemur -40.5704 -0.397435 26.3866
rtibia 22.0695
rfoot -10.1364 -14.6959
rtoes -16.6749
lfemur -51.1049 -21.8209 7.62075
ltibia 23.5173
lfoot -8.07793 7.77358
ltoes -27.2174
1021
root -0.821782 17.2547 -1.48632 28.8311 22.4894 -3.56414
lowerback 10.845 0.898824 -4.06758
upperback -5.27444 0.588296 0.122099
thorax -11.9126 0.610441 2.30241
lowerneck -14.4264 -4.76032 -13.8752
upperneck 1.32874 -5.46487 24.4505
head 4.06253 -1.74159 9.80208
rclavicle 7.55382e-015 2.42517e-014
rhumerus -9.95236 -13.2651 -76.7305
rradius 102.737
rwrist 27.1838
rhand 12.191 0.473486
rfingers 7.12502
rthumb 37.2013 -25.5387
lclavicle 7.55382e-015 2.42517e-014
lhumerus 44.3524 -51.499 72.3361
lradius 80.4921
lwrist -13.8087
lhand 18.5835 33.9651
lfingers 7.12502
lthumb 43.2133 58.1353
rfemur -41.0718 -0.87193 26.7127
rtibia 22.7054
rfoot -10.3621 -15.254
rtoes -16.312
lfemur -51.7428 -21.8354 7.905
ltibia 23.4995
lfoot -7.84096 7.0132
ltoes -28.1697
1022
root -0.840403 17.2422 -1.48293 29.0722 23.6414 -3.42466
lowerback 10.8401 0.817897 -4.03556
upperback -5.34777 0.502257 0.292893
thorax -11.9884 0.578496 2.48909
lowerneck -14.6506 -4.50847 -13.7716
upperneck 1.57221 -5.14218 24.4239
head 4.10141 -1.55782 9.81125
rclavicle 5.28767e-014 8.34896e-015
rhumerus -10.4934 -14.1301 -75.7643
rradius 103.044
rwrist 27.0981
rhand 12.1939 0.434361
rfingers 7.12502
rthumb 37.2041 -25.5771
lclavicle 5.28767e-014 8.34896e-015
lhumerus 45.3695 -52.1649 71.8499
lradius 80.7476
lwrist -13.496
lhand 18.6965 33.9191
lfingers 7.12502
lthumb 43.3189 58.0514
rfemur -41.6031 -1.34407 26.9498
rtibia 23.3304
rfoot -10.5253 -15.8348
rtoes -16.7131
lfemur -52.4177 -21.877 8.13579
ltibia 23.5042
lfoot -7.68664 6.11642
ltoes -28.2235
1023
root -0.856916 17.2299 -1.47728 29.2376 24.7972 -3.2789
lowerback 10.8158 0.704408 -3.81921
upperback -5.32756 0.394055 0.375496
thorax -11.9388 0.51274 2.48029
lowerneck -14.8428 -4.30751 -13.5372
upperneck 1.64703 -4.88502 24.3421
head 4.09396 -1.41515 9.76556
rclavicle -4.96962e-015 4.77083e-015
rhumerus -10.8331 -14.9919 -75.0784
rradius 103.365
rwrist 26.9874
rhand 12.3264 0.35613
rfingers 7.12502
rthumb 37.3294 -25.6225
lclavicle -4.96962e-015 4.77083e-015
lhumerus 46.2644 -52.6526 71.3321
lradius 81.0658
lwrist -13.2992
lhand 18.6748 33.9136
lfingers 7.12502
lthumb 43.2986 58.0532
rfemur -42.0126 -1.79721 27.172
rtibia 23.9183
rfoot -10.7258 -16.4303
rtoes -16.7282
lfemur -52.985 -21.984 8.33852
ltibia 23.4761
lfoot -7.56909 5.28249
ltoes -28.4414
1024
root -0.873782 17.2138 -1.47024 29.2574 25.8116 -3.28207
lowerback 10.7871 0.642589 -3.50136
upperback -5.23108 0.371082 0.444482
thorax -11.8047 0.476091 2.38113
lowerneck -14.9604 -4.22286 -13.3911
upperneck 1.51648 -4.75289 24.3429
head 4.04685 -1.34362 9.75
rclavicle -2.82274e-014 1.82882e-014
rhumerus -10.9816 -15.8351 -74.599
rradius 103.557
rwrist 26.9167
rhand 12.4992 0.257919
rfingers 7.12502
rthumb 37.4927 -25.6776
lclavicle -2.82274e-014 1.82882e-014
lhumerus 47.0251 -52.9978 70.8368
lradius 81.4337
lwrist -13.1433
lhand 18.6314 34.0311
lfingers 7.12502
lthumb 43.2581 58.1852
rfemur -42.2931 -2.03673 27.4317
rtibia 24.4649
rfoot -10.9512 -17.0269
rtoes -15.9514
lfemur -53.3616 -21.9897 8.54422
ltibia 23.4355
lfoot -7.50296 4.49719
ltoes -28.9975
1025
root -0.892089 17.203 -1.46522 29.322 26.6073 -3.21963
lowerback 10.807 0.593268 -3.54894
upperback -5.16203 0.317994 0.638563
thorax -11.7372 0.461648 2.63114
lowerneck -15.2052 -4.15348 -13.4544
upperneck 1.59382 -4.62867 24.3154
head 4.08636 -1.2653 9.76746
rclavicle -4.1546e-014 -1.15295e-014
rhumerus -11.012 -16.3296 -74.1391
rradius 103.652
rwrist 26.8576
rhand 12.5468 0.282816
rfingers 7.12502
rthumb 37.5377 -25.6407
lclavicle -4.1546e-014 -1.15295e-014
lhumerus 47.2618 -52.9708 70.8362
lradius 81.8127
lwrist -13.2096
lhand 18.4235 34.1041
lfingers 7.12502
lthumb 43.0638 58.3275
rfemur -42.5731 -2.2016 27.5688
rtibia 24.9255
rfoot -11.1765 -17.5201
rtoes -15.2125
lfemur -53.6891 -21.9772 8.65797
ltibia 23.3886
lfoot -7.46138 3.80658
ltoes -28.5675
1026
root -0.905472 17.1965 -1.45751 29.4212 27.3351 -3.09455
lowerback 10.8159 0.559194 -3.59282
upperback -5.14646 0.281879 0.79415
thorax -11.7243 0.455028 2.83354
lowerneck -15.3715 -4.1022 -13.5046
upperneck 1.76099 -4.54937 24.1907
head 4.14191 -1.21546 9.74362
rclavicle -4.11484e-014 -2.42517e-014
rhumerus -11.1552 -16.7465 -73.661
rradius 103.747
rwrist 26.7767
rhand 12.5072 0.331401
rfingers 7.12502
rthumb 37.5003 -25.6021
lclavicle -4.11484e-014 -2.42517e-014
lhumerus 47.155 -52.8773 71.0999
lradius 82.1846
lwrist -13.3845
lhand 18.2777 34.0575
lfingers 7.12502
lthumb 42.9274 58.3291
rfemur -42.8068 -2.46624 27.6733
rtibia 25.3107
rfoot -11.4662 -17.8913
rtoes -14.6378
lfemur -54.0153 -22.0915 8.77083
ltibia 23.3513
lfoot -7.42089 3.31782
ltoes -28.4852
1027
root -0.914942 17.1919 -1.44615 29.4245 27.9924 -3.02286
lowerback 10.8866 0.5543 -3.45075
upperback -5.17239 0.299933 0.837419
thorax -11.7963 0.456709 2.79704
lowerneck -15.3047 -4.11301 -13.4632
upperneck 1.79577 -4.57411 24.0709
head 4.13844 -1.23455 9.68961
rclavicle 8.44835e-015 -7.95139e-016
rhumerus -11.3884 -17.2087 -73.3745
rradius 103.812
rwrist 26.7644
rhand 12.3949 0.293477
rfingers 7.12502
rthumb 37.3942 -25.6681
lclavicle 8.44835e-015 -7.95139e-016
lhumerus 46.7689 -52.8457 71.432
lradius 82.5319
lwrist -13.5859
lhand 18.0355 34.016
lfingers 7.12502
lthumb 42.7008 58.3668
rfemur -42.8835 -2.7063 27.8019
rtibia 25.5986
rfoot -11.5967 -18.2641
rtoes -14.7033
lfemur -54.1664 -22.2338 8.8583
ltibia 23.2486
lfoot -7.32199 2.95814
ltoes -28.8959
1028
root -0.925482 17.186 -1.43428 29.4039 28.549 -2.99313
lowerback 10.9622 0.533399 -3.35329
upperback -5.18187 0.290771 0.893452
thorax -11.8513 0.448803 2.80545
lowerneck -15.2469 -4.11269 -13.4265
upperneck 1.78861 -4.57681 23.9835
head 4.12179 -1.24249 9.64997
rclavicle 2.97183e-014 -2.62396e-014
rhumerus -11.5078 -17.4756 -73.2461
rradius 103.895
rwrist 26.7648
rhand 12.3849 0.160215
rfingers 7.12502
rthumb 37.3847 -25.8038
lclavicle 2.97183e-014 -2.62396e-014
lhumerus 46.0566 -52.5716 71.9388
lradius 82.8533
lwrist -13.8975
lhand 17.8101 33.6127
lfingers 7.12502
lthumb 42.4898 58.0365
rfemur -42.9216 -2.87939 27.9432
rtibia 25.8084
rfoot -11.6286 -18.5682
rtoes -14.4617
lfemur -54.2495 -22.2982 8.92217
ltibia 23.1234
lfoot -7.24666 2.63647
ltoes -28.9749
1029
root -0.933749 17.1845 -1.42199 29.3758 29.0736 -2.91443
lowerback 10.9839 0.475556 -3.30819
upperback -5.14992 0.229089 0.982747
thorax -11.8234 0.419239 2.89061
lowerneck -15.1841 -4.09025 -13.422
upperneck 1.7789 -4.5409 23.8648
head 4.09498 -1.23406 9.60886
rclavicle -3.43897e-014 -1.78906e-014
rhumerus -11.5636 -17.567 -73.1725
rradius 103.988
rwrist 26.7306
rhand 12.1762 3.82063e-005
rfingers 7.12502
rthumb 37.1874 -26.0158
lclavicle -3.43897e-014 -1.78906e-014
lhumerus 45.1059 -52.1004 72.6297
lradius 83.1393
lwrist -14.1762
lhand 17.4391 33.1462
lfingers 7.12502
lthumb 42.1424 57.6883
rfemur -42.8712 -3.13138 28.0653
rtibia 25.9327
rfoot -11.6871 -18.8105
rtoes -13.945
lfemur -54.2939 -22.399 8.90792
ltibia 23.02
lfoot -7.19564 2.32793
ltoes -28.9462
1030
root -0.938473 17.1868 -1.40931 29.2863 29.5535 -2.8529
lowerback 11.0368 0.444708 -3.13815
upperback -5.1208 0.215875 1.00739
thorax -11.8191 0.400324 2.82419
lowerneck -15.1036 -4.13822 -13.4416
upperneck 1.81947 -4.61409 23.8014
head 4.10466 -1.27637 9.58239
rclavicle 5.12864e-014 2.68359e-014
rhumerus -11.6964 -17.7277 -73.1981
rradius 104.108
rwrist 26.6416
rhand 11.9709 0.0978778
rfingers 7.12502
rthumb 36.9932 -25.9683
lclavicle 5.12864e-014 2.68359e-014
lhumerus 44.1246 -51.7081 73.2527
lradius 83.3717
lwrist -14.2594
lhand 16.7601 33.0335
lfingers 7.12502
lthumb 41.5057 57.787
rfemur -42.7257 -3.39759 28.188
rtibia 26.0042
rfoot -11.8543 -19.0214
rtoes -13.8081
lfemur -54.2606 -22.5741 8.91596
ltibia 22.9281
lfoot -7.13643 1.97244
ltoes -28.0292
